<?xml version="1.0" standalone="no"?>
<!DOCTYPE svg PUBLIC "-//W3C//DTD SVG 20010904//EN"
 "http://www.w3.org/TR/2001/REC-SVG-20010904/DTD/svg10.dtd">
<svg version="1.0" xmlns="http://www.w3.org/2000/svg"
 width="1029.000000pt" height="487.000000pt" viewBox="0 0 1029.000000 487.000000"
 preserveAspectRatio="xMidYMid meet">

<g transform="translate(0.000000,487.000000) scale(0.100000,-0.100000)"
fill="#333333" stroke="none">
<path d="M2 2438 l-2 -2438 5145 0 5145 0 0 1845 0 1844 -89 61 c-390 262
-771 424 -1221 519 -342 73 -670 105 -1207 118 -253 6 -273 8 -273 24 0 16 8
18 58 16 31 -1 163 7 292 17 336 27 701 17 935 -25 78 -14 258 -57 287 -69 31
-12 -2 -13 -34 -1 -48 18 -439 92 -478 90 -8 0 70 -18 174 -39 406 -83 763
-204 1100 -372 67 -33 117 -55 111 -50 -16 17 -299 156 -420 206 -197 83 -186
89 15 8 225 -89 461 -209 645 -327 44 -28 86 -54 93 -59 9 -6 12 31 12 172 l0
180 -112 65 c-579 334 -1186 516 -1923 578 -177 15 -663 15 -860 0 -633 -48
-1336 -173 -2018 -362 -223 -61 -820 -239 -867 -258 -49 -19 -6 -10 178 38
609 159 1546 373 1620 370 10 0 -100 -31 -243 -68 -287 -75 -697 -190 -705
-198 -6 -7 0 -6 260 55 291 68 511 114 517 109 2 -3 -11 -8 -29 -12 -33 -7
-372 -96 -375 -99 -1 0 89 -1 200 -1 207 0 277 -10 277 -41 0 -26 -45 -43
-250 -94 -433 -108 -755 -199 -1835 -516 -346 -102 -690 -203 -764 -225 -74
-21 -137 -41 -139 -44 -27 -27 397 77 1140 279 604 164 770 208 775 202 2 -2
-53 -23 -122 -46 -69 -23 -125 -44 -123 -45 7 -8 297 58 459 104 286 81 403
108 634 145 121 20 337 56 480 81 607 105 826 129 1200 128 315 0 498 -16 780
-68 158 -29 422 -93 445 -107 10 -6 6 -7 -15 -3 -16 4 -88 20 -160 35 -501
111 -1114 127 -1865 50 -490 -50 -904 -139 -1815 -390 -203 -56 -471 -126
-595 -156 -306 -74 -289 -69 -610 -173 -1407 -455 -2610 -713 -3580 -766 -58
-3 -135 -8 -172 -11 l-68 -5 -3 1083 c-1 596 -3 -14 -5 -1354z m8086 2342
c250 -18 512 -59 732 -114 76 -19 42 -19 -55 -1 -266 51 -572 75 -952 75 -166
0 -325 -2 -355 -5 -29 -3 -116 -10 -193 -15 -145 -11 -499 -53 -594 -70 -30
-6 -61 -10 -70 -10 -39 0 10 12 164 40 510 92 956 126 1323 100z m112 -84
c214 -27 423 -62 390 -65 -9 0 -69 6 -135 14 -548 67 -1340 28 -2019 -100 -80
-15 -135 -19 -81 -5 265 66 733 140 1075 169 150 13 632 5 770 -13z m437 -72
c-3 -3 -12 -4 -19 -1 -8 3 -5 6 6 6 11 1 17 -2 13 -5z m-2280 -30 c-3 -3 -12
-4 -19 -1 -8 3 -5 6 6 6 11 1 17 -2 13 -5z m2038 -419 c226 -21 398 -48 585
-91 129 -29 155 -37 175 -49 11 -6 41 -20 68 -30 67 -25 52 -29 -24 -6 -173
53 -526 128 -744 158 -107 15 -201 18 -530 18 -220 0 -368 3 -330 6 152 12
651 9 800 -6z m-1030 -26 c-219 -26 -490 -72 -735 -124 -317 -69 -350 -77
-343 -88 3 -5 -3 -6 -16 -2 -24 7 -64 -2 -56 -14 5 -9 -214 -59 -289 -66 -27
-3 -67 -10 -88 -16 -22 -6 -42 -9 -44 -6 -11 11 592 164 851 216 300 60 709
119 820 119 39 0 5 -7 -100 -19z m1590 -39 c13 -5 14 -9 5 -9 -8 0 -24 4 -35
9 -13 5 -14 9 -5 9 8 0 24 -4 35 -9z m-2698 -186 c-3 -3 -12 -4 -19 -1 -8 3
-5 6 6 6 11 1 17 -2 13 -5z m-607 -146 c-196 -60 -364 -107 -367 -104 -3 2 30
14 71 26 116 35 84 35 -52 0 -120 -30 -139 -34 -131 -26 6 6 308 84 408 106
113 24 153 23 71 -2z m-510 -118 c-34 -11 -60 -11 -35 0 11 5 29 8 40 8 16 0
15 -2 -5 -8z m-63 -16 c-3 -3 -12 -4 -19 -1 -8 3 -5 6 6 6 11 1 17 -2 13 -5z
m-40 -10 c-3 -3 -12 -4 -19 -1 -8 3 -5 6 6 6 11 1 17 -2 13 -5z m-572 -154
c-11 -5 -27 -9 -35 -9 -9 0 -8 4 5 9 11 5 27 9 35 9 9 0 8 -4 -5 -9z m-56 -14
c-8 -8 -1188 -341 -1519 -429 -1086 -289 -1966 -442 -2713 -475 -165 -7 -167
-7 -167 14 0 20 6 21 173 28 877 35 1613 169 3042 556 472 128 668 180 860
230 110 29 220 58 245 65 45 13 87 18 79 11z m-2300 -730 c-23 -22 -987 -186
-1095 -186 -13 0 -24 -6 -24 -13 0 -10 -42 -16 -167 -25 -159 -12 -496 -29
-648 -35 l-70 -2 85 -20 85 -20 -85 -7 c-47 -3 -106 -6 -132 -7 l-48 -1 0 45
c0 38 3 45 23 49 12 3 114 7 227 10 380 10 943 75 1650 190 140 23 208 30 199
22z"/>
<path d="M5480 4329 c-58 -10 -116 -17 -128 -14 -15 4 -21 2 -17 -4 3 -6 -6
-10 -22 -10 -15 1 -44 -4 -63 -9 -19 -6 -125 -34 -235 -62 -110 -28 -362 -94
-559 -146 -197 -52 -365 -94 -372 -94 -7 0 -15 -4 -18 -9 -3 -5 36 -7 87 -5
l92 4 -60 -22 c-60 -23 -60 -23 -25 -27 46 -4 187 17 225 34 29 13 27 13 -40
14 -44 1 -64 5 -55 10 17 9 317 83 535 131 117 26 771 214 784 226 7 7 -20 3
-129 -17z"/>
<path d="M4435 4160 c-13 -5 -14 -9 -5 -9 8 0 24 4 35 9 13 5 14 9 5 9 -8 0
-24 -4 -35 -9z"/>
<path d="M9960 3966 c0 -3 9 -10 20 -16 11 -6 20 -8 20 -6 0 3 -9 10 -20 16
-11 6 -20 8 -20 6z"/>
</g>
</svg>
