<?xml version="1.0" standalone="no"?>
<!DOCTYPE svg PUBLIC "-//W3C//DTD SVG 20010904//EN"
 "http://www.w3.org/TR/2001/REC-SVG-20010904/DTD/svg10.dtd">
<svg version="1.0" xmlns="http://www.w3.org/2000/svg"
 width="779.000000pt" height="389.000000pt" viewBox="0 0 779.000000 389.000000"
 preserveAspectRatio="xMidYMid meet">

<g transform="translate(0.000000,389.000000) scale(0.100000,-0.100000)"
fill="#333333" stroke="none">
<path d="M0 2370 l0 -1520 62 -45 c223 -165 501 -296 778 -369 267 -70 530
-102 928 -113 187 -5 242 -9 242 -19 0 -9 -15 -13 -47 -12 -27 0 -118 -6 -203
-12 -92 -7 -220 -10 -315 -6 -88 3 -173 6 -190 6 -62 0 -353 56 -342 66 2 3
42 -5 88 -16 46 -11 93 -20 104 -20 11 1 -41 16 -115 36 -209 53 -416 126
-542 190 -27 14 -52 23 -54 21 -5 -4 165 -84 239 -112 26 -10 46 -20 43 -22
-6 -6 -210 79 -314 131 -111 56 -251 137 -314 183 l-48 35 0 -130 0 -130 113
-66 c832 -483 1795 -551 3162 -221 196 47 809 225 801 232 -2 2 -138 -30 -302
-71 -437 -109 -879 -208 -917 -205 -7 0 53 18 133 38 211 55 451 123 447 127
-1 2 -94 -17 -206 -42 -112 -25 -205 -43 -207 -41 -3 2 44 16 103 32 60 15
109 28 110 29 1 1 -55 2 -125 2 -120 0 -202 13 -202 34 0 14 62 37 160 60 147
33 599 158 990 273 195 58 488 144 649 191 162 48 297 89 300 91 16 17 -349
-73 -844 -208 -455 -124 -534 -143 -410 -98 44 16 75 30 69 30 -22 2 -160 -31
-355 -85 -164 -45 -580 -126 -631 -123 -7 0 67 18 165 40 199 43 379 89 727
186 129 35 327 87 440 114 113 28 293 79 400 114 1035 339 1915 519 2704 553
139 6 171 10 179 23 6 9 7 24 3 34 -6 16 -26 17 -294 12 -600 -11 -1104 -102
-2177 -392 -462 -125 -777 -206 -781 -203 -4 5 737 216 1045 298 796 212 1513
331 2066 341 l50 1 -30 14 c-71 34 -620 -12 -1219 -102 -164 -25 -300 -43
-303 -41 -7 8 363 75 567 104 107 15 197 30 200 34 7 9 221 26 450 36 168 7
173 7 122 19 -30 7 -57 15 -60 19 -9 10 657 -1 681 -10 16 -7 17 49 17 1099
l0 1106 -3895 0 -3895 0 0 -1520z m3707 -1536 c-3 -3 -12 -4 -19 -1 -8 3 -5 6
6 6 11 1 17 -2 13 -5z m-40 -10 c-3 -3 -12 -4 -19 -1 -8 3 -5 6 6 6 11 1 17
-2 13 -5z m-40 -10 c-3 -3 -12 -4 -19 -1 -8 3 -5 6 6 6 11 1 17 -2 13 -5z
m-92 -14 c13 -6 15 -9 5 -9 -8 0 -22 4 -30 9 -18 12 -2 12 25 0z m52 4 c-3 -3
-12 -4 -19 -1 -8 3 -5 6 6 6 11 1 17 -2 13 -5z m-88 -13 c9 -6 -17 -16 -79
-30 -128 -29 -152 -25 -45 8 104 33 106 33 124 22z m-330 -95 c-7 -6 -399
-105 -504 -126 -158 -33 -377 -70 -405 -69 -14 0 45 13 131 29 211 38 498 103
493 112 -2 3 28 14 68 22 40 9 91 20 113 25 41 9 112 14 104 7z m-2250 -130
c223 -56 387 -83 626 -100 28 -2 -6 -2 -75 0 -214 6 -564 68 -648 114 -20 12
-29 19 -18 15 10 -3 62 -16 115 -29z m242 -87 c392 -86 963 -89 1512 -8 77 11
141 18 143 16 2 -2 -69 -16 -158 -31 -364 -59 -439 -67 -685 -73 -254 -6 -372
2 -588 38 -122 20 -355 75 -365 86 -3 3 9 3 25 -1 17 -5 69 -16 116 -27z
m1057 14 c-10 -2 -28 -2 -40 0 -13 2 -5 4 17 4 22 1 32 -1 23 -4z m-85 -10
c-13 -2 -33 -2 -45 0 -13 2 -3 4 22 4 25 0 35 -2 23 -4z m-95 -10 c-16 -2 -40
-2 -55 0 -16 2 -3 4 27 4 30 0 43 -2 28 -4z m-140 -10 c-21 -2 -55 -2 -75 0
-21 2 -4 4 37 4 41 0 58 -2 38 -4z m1109 -209 c-3 -3 -12 -4 -19 -1 -8 3 -5 6
6 6 11 1 17 -2 13 -5z m-188 -38 c-9 -9 -376 -77 -521 -97 -221 -29 -588 -37
-773 -15 -77 9 -174 23 -215 31 -79 15 -68 15 120 -5 124 -13 562 -13 715 0
149 13 488 57 575 74 69 14 106 19 99 12z m18 -42 c-3 -3 -12 -4 -19 -1 -8 3
-5 6 6 6 11 1 17 -2 13 -5z m-1774 -41 c-7 -2 -19 -2 -25 0 -7 3 -2 5 12 5 14
0 19 -2 13 -5z m1570 0 c-7 -2 -21 -2 -30 0 -10 3 -4 5 12 5 17 0 24 -2 18 -5z
m-1383 -27 c309 -43 690 -46 1050 -7 305 33 294 32 215 16 -324 -69 -810 -93
-1090 -55 -99 13 -338 60 -345 67 -3 3 11 3 30 -1 19 -3 82 -12 140 -20z"/>
<path d="M4225 625 l-50 -13 50 -1 c33 -1 45 -4 35 -10 -13 -8 -255 -67 -410
-101 -42 -9 -263 -73 -495 -144 -5 -1 21 -2 57 -2 40 1 60 4 50 9 -10 4 -4 5
16 2 17 -2 32 0 32 5 0 6 10 10 23 10 12 0 218 51 457 112 408 106 431 113
375 117 l-60 3 35 13 35 13 -50 0 c-27 0 -72 -6 -100 -13z"/>
<path d="M1138 303 c6 -2 18 -2 25 0 6 3 1 5 -13 5 -14 0 -19 -2 -12 -5z"/>
<path d="M1198 293 c6 -2 18 -2 25 0 6 3 1 5 -13 5 -14 0 -19 -2 -12 -5z"/>
</g>
</svg>
